<?xml version="1.0" encoding="UTF-8"?>
<svg id="Layer_2" data-name="Layer 2" xmlns="http://www.w3.org/2000/svg" viewBox="0 0 149.07 183.56">
  <defs>
    <style>
      .cls-1 {
        fill: none;
        stroke: #231f20;
        stroke-linecap: round;
        stroke-linejoin: round;
        stroke-width: 5px;
      }
    </style>
  </defs>
  <g id="Artboard">
    <g>
      <g id="Hand_Icon" data-name="Hand Icon">
        <path class="cls-1" d="M51.81,107.36l-29.9-29.9L5.58,61.13c-4.1-4.1-4.1-10.75,0-14.85s10.75-4.1,14.85,0"/>
        <path class="cls-1" d="M78.2,74.35L29.97,26.12c-4.1-4.1-10.75-4.1-14.85,0s-4.1,10.75,0,14.85c0,0,48.23,48.23,48.23,48.23"/>
        <path class="cls-1" d="M40.03,36.19c-4.1-4.1-4.1-10.75,0-14.85s10.75-4.1,14.85,0h0s55.01,55.01,55.01,55.01"/>
        <path class="cls-1" d="M100.76,125.44c-5.15-7.42-3.71-20.17-1.85-25.97,3.93-12.29,9.76-15.28,10.91-22.62,1.42-9.05-.49-14.89,1.65-26.79,2.16-12.06,18.03-17.21,20.48-3.53,2.26,12.61,1.49,28.23,8.07,43.36,4.48,10.31,9.41,17.59,4.53,32.2-5.45,16.29-19.59,30.93-32.47,38.65-12.16,7.3-30.36,6.24-42.79-6.19-15.54-15.54-62.16-62.16-62.16-62.16h0c-4.1-4.1-4.1-10.75,0-14.85s10.69-4.17,14.79-.07"/>
      </g>
      <g>
        <path class="cls-1" d="M109.6,2.5c13.74,4.8,25.67,12.46,35.35,22.06"/>
        <path class="cls-1" d="M47.17,181.06c-16.8-5.87-30.89-16.01-41.49-28.77"/>
        <path class="cls-1" d="M105.47,15.39c11.71,4.09,21.88,10.62,30.14,18.81"/>
        <path class="cls-1" d="M52.25,167.62c-14.32-5.01-26.34-13.65-35.37-24.53"/>
      </g>
    </g>
  </g>
</svg>