<svg width="72" height="60" viewBox="0 0 72 60" fill="none" xmlns="http://www.w3.org/2000/svg">
<path d="M71.3706 29.7461C71.3706 28.6393 70.9149 27.6627 70.0035 26.8164L44.8081 1.66991C43.9617 0.856114 43.0015 0.449219 41.9273 0.449219C40.8531 0.449219 39.9497 0.807281 39.2173 1.52341C38.4849 2.23961 38.1187 3.15108 38.1187 4.25782C38.1187 4.77868 38.2082 5.28325 38.3872 5.77151C38.5662 6.25978 38.8348 6.66668 39.1929 6.99221L45.9312 13.9746L62.4351 28.8672L63.314 26.7188L50.3257 25.791H4.23196C3.0601 25.791 2.11606 26.1654 1.39986 26.9141C0.683743 27.6628 0.325684 28.6068 0.325684 29.7461C0.325684 30.8855 0.683743 31.8294 1.39986 32.5781C2.11606 33.3268 3.0601 33.7012 4.23196 33.7012H50.3257L63.314 32.7734L62.4351 30.6738L45.9312 45.5176L39.1929 52.5C38.8348 52.8255 38.5662 53.2324 38.3872 53.7207C38.2082 54.209 38.1187 54.7135 38.1187 55.2344C38.1187 56.3412 38.4849 57.2526 39.2173 57.9688C39.9497 58.6849 40.8531 59.043 41.9273 59.043C43.0015 59.043 43.9617 58.6361 44.8081 57.8223L70.0035 32.6758C70.9149 31.8294 71.3706 30.8528 71.3706 29.7461Z" fill="black"/>
</svg>
