<svg width="18" height="14" viewBox="0 0 18 14" fill="none" xmlns="http://www.w3.org/2000/svg">
<g clip-path="url(#clip0_37_449)">
<path d="M2.45312 13.4766H15.0312C15.7343 13.4766 16.2799 13.2748 16.668 12.8711C17.056 12.4674 17.25 11.862 17.25 11.0547V2.42969C17.25 1.6276 17.0456 1.02474 16.6367 0.621094C16.2278 0.217448 15.6146 0.015625 14.7969 0.015625H2.21875C1.51562 0.015625 0.97005 0.217448 0.582031 0.621094C0.19401 1.02474 0 1.6276 0 2.42969V11.0547C0 11.862 0.204427 12.4674 0.613281 12.8711C1.02213 13.2748 1.63541 13.4766 2.45312 13.4766ZM2.40625 12.2812C2.01562 12.2812 1.71614 12.1784 1.50781 11.9727C1.29948 11.767 1.19531 11.461 1.19531 11.0547V2.42969C1.19531 2.02864 1.29948 1.72526 1.50781 1.51953C1.71614 1.3138 2.01562 1.21094 2.40625 1.21094H14.8438C15.2292 1.21094 15.5274 1.3138 15.7383 1.51953C15.9492 1.72526 16.0547 2.03125 16.0547 2.4375V11.0625C16.0547 11.4636 15.9492 11.767 15.7383 11.9727C15.5274 12.1784 15.2292 12.2812 14.8438 12.2812H2.40625ZM8.64062 8.82812C8.91667 8.82812 9.1875 8.76823 9.45312 8.64844C9.71875 8.52865 9.98957 8.33333 10.2656 8.0625L16.6094 1.82812L15.7969 1.00781L9.58594 7.14062C9.41406 7.30729 9.2513 7.42968 9.09766 7.50781C8.94401 7.58594 8.79167 7.625 8.64062 7.625C8.48437 7.625 8.32943 7.58464 8.17578 7.50391C8.02213 7.42318 7.86198 7.30208 7.69531 7.14062L1.45312 0.976562L0.632812 1.79688L7.01562 8.0625C7.28646 8.33333 7.55599 8.52865 7.82422 8.64844C8.09245 8.76823 8.36458 8.82812 8.64062 8.82812ZM15.7188 12.4531L16.5312 11.6328L11.4766 6.64062L10.6641 7.45312L15.7188 12.4531ZM0.742188 11.6406L1.55469 12.4609L6.61719 7.45312L5.79688 6.64062L0.742188 11.6406Z" fill="black"/>
</g>
<defs>
<clipPath id="clip0_37_449">
<rect width="17.25" height="13.4766" fill="white"/>
</clipPath>
</defs>
</svg>
