<svg width="62" height="62" viewBox="0 0 62 62" fill="none" xmlns="http://www.w3.org/2000/svg">
<path d="M1.12308 60.205C1.90428 60.9537 2.84828 61.3281 3.95508 61.3281C5.06188 61.3281 5.98961 60.9537 6.73828 60.205L30.6641 36.2304L54.6387 60.205C55.3873 60.9537 56.3151 61.3362 57.4219 61.3525C58.5287 61.3688 59.4564 60.9863 60.2051 60.205C60.9538 59.4238 61.3282 58.4879 61.3282 57.3974C61.3282 56.3069 60.9538 55.3873 60.2051 54.6386L36.2305 30.664L60.2051 6.7382C60.9538 5.957 61.3363 5.013 61.3526 3.9062C61.3688 2.79947 60.9863 1.87173 60.2051 1.123C59.4238 0.374334 58.4879 0 57.3975 0C56.3069 0 55.3873 0.374334 54.6387 1.123L30.6641 25.0976L6.73828 1.123C5.98961 0.374334 5.05375 0 3.93068 0C2.80761 0 1.87175 0.374334 1.12308 1.123C0.374359 1.90427 0 2.84014 0 3.9306C0 5.02114 0.374359 5.957 1.12308 6.7382L25.0977 30.664L1.12308 54.6386C0.374359 55.3873 0 56.3151 0 57.4218C0 58.5286 0.374359 59.4563 1.12308 60.205Z" fill="black"/>
</svg>
