<svg width="18" height="18" viewBox="0 0 18 18" fill="none" xmlns="http://www.w3.org/2000/svg">
<path d="M0.329493 17.6632C0.558685 17.8828 0.835639 17.9927 1.16036 17.9927C1.48507 17.9927 1.75726 17.8828 1.9769 17.6632L8.99634 10.6294L16.0301 17.6632C16.2497 17.8828 16.5219 17.9951 16.8466 17.9998C17.1714 18.0046 17.4435 17.8924 17.6632 17.6632C17.8829 17.434 17.9927 17.1594 17.9927 16.8395C17.9927 16.5195 17.8829 16.2497 17.6632 16.0301L10.6294 8.99632L17.6632 1.97688C17.8829 1.74769 17.9951 1.47073 17.9999 1.14602C18.0046 0.821319 17.8924 0.549137 17.6632 0.32947C17.434 0.109824 17.1594 0 16.8395 0C16.5195 0 16.2497 0.109824 16.0301 0.32947L8.99634 7.36323L1.9769 0.32947C1.75726 0.109824 1.48269 0 1.1532 0C0.823708 0 0.54914 0.109824 0.329493 0.32947C0.109831 0.558681 0 0.83325 0 1.15318C0 1.47312 0.109831 1.74769 0.329493 1.97688L7.36325 8.99632L0.329493 16.0301C0.109831 16.2497 0 16.5219 0 16.8466C0 17.1713 0.109831 17.4435 0.329493 17.6632Z" fill="black"/>
</svg>
