<svg width="25" height="13" viewBox="0 0 25 13" fill="none" xmlns="http://www.w3.org/2000/svg">
<path d="M12.6523 2.66557C12.963 2.65897 12.6713 2.66557 12.9395 2.66557C13.2077 2.66557 13.2267 2.66557 13.3703 2.66557L23.4575 2.66558C23.7617 2.66558 24.0278 2.55484 24.2559 2.33335C24.484 2.11186 24.5947 1.84575 24.5881 1.53501C24.5815 1.22426 24.4675 0.958149 24.246 0.736664C24.0245 0.515182 23.7617 0.404441 23.4575 0.404441L13.3703 0.404444C13.2267 0.404444 13.3105 0.404444 13.0831 0.404443C12.7959 0.404443 12.9899 0.402976 12.6523 0.404444C12.3131 0.405918 12.5086 0.404444 12.2214 0.404444C11.9342 0.404444 11.9997 0.404444 11.7906 0.404444H11.4577L1.72886 0.394531C1.42474 0.394532 1.15863 0.508581 0.93053 0.736682C0.702429 0.964783 0.588379 1.23089 0.588379 1.53501C0.594989 1.84576 0.709035 2.11187 0.930514 2.33335C1.15201 2.55484 1.41812 2.66889 1.72885 2.67548L11.4577 2.66557H11.9342C12.2214 2.66557 12.2214 2.66557 12.5171 2.66557C12.835 2.66557 12.3481 2.66558 12.6523 2.66557Z" fill="black"/>
<path d="M12.6523 12.1443C12.963 12.1377 12.6713 12.1443 12.9395 12.1443C13.2077 12.1443 13.2267 12.1443 13.3703 12.1443L23.4575 12.1443C23.7617 12.1443 24.0278 12.0336 24.2559 11.8121C24.484 11.5906 24.5947 11.3245 24.5881 11.0137C24.5815 10.703 24.4675 10.4369 24.246 10.2154C24.0245 9.9939 23.7617 9.88316 23.4575 9.88316L13.3703 9.88317C13.2267 9.88317 13.3105 9.88317 13.0831 9.88317C12.7959 9.88317 12.9899 9.8817 12.6523 9.88317C12.3131 9.88464 12.5086 9.88317 12.2214 9.88317C11.9342 9.88317 11.9997 9.88317 11.7906 9.88317H11.4577L1.72886 9.87325C1.42474 9.87325 1.15863 9.9873 0.93053 10.2154C0.702429 10.4435 0.588379 10.7096 0.588379 11.0137C0.594989 11.3245 0.709035 11.5906 0.930514 11.8121C1.15201 12.0336 1.41812 12.1476 1.72885 12.1542L11.4577 12.1443H11.9342C12.2214 12.1443 12.2214 12.1443 12.5171 12.1443C12.835 12.1443 12.3481 12.1443 12.6523 12.1443Z" fill="black"/>
</svg>
