<svg width="30" height="30" viewBox="0 0 30 30" fill="none" xmlns="http://www.w3.org/2000/svg">
<path d="M28.7017 15C29.4187 15 30.0058 15.5825 29.9439 16.2968C29.6459 19.7321 28.1708 22.9751 25.7468 25.4645C23.0197 28.2652 19.307 29.8906 15.3993 29.9947C11.4916 30.0987 7.6976 28.6732 4.8253 26.0216C1.95299 23.37 0.229296 19.7019 0.0212571 15.7983C-0.186782 11.8947 1.13728 8.06415 3.71148 5.12229C6.28568 2.18042 9.90663 0.359689 13.8033 0.0478144C17.6999 -0.26406 21.5644 0.957562 24.5737 3.45254C27.2485 5.67017 29.0599 8.73804 29.7214 12.1222C29.8589 12.8259 29.337 13.4675 28.624 13.5437V13.5437C27.911 13.6199 27.2781 13.1013 27.1278 12.4002C26.5467 9.68916 25.07 7.23707 22.9164 5.45156C20.428 3.38849 17.2325 2.37835 14.0104 2.63623C10.7884 2.89412 7.79424 4.39966 5.66567 6.83225C3.5371 9.26484 2.44225 12.4323 2.61427 15.6601C2.7863 18.8879 4.2116 21.921 6.58667 24.1136C8.96174 26.3062 12.0989 27.485 15.3302 27.3989C18.5614 27.3129 21.6314 25.9688 23.8864 23.6529C25.8381 21.6486 27.0458 19.0535 27.3354 16.2961C27.4103 15.5829 27.9846 15 28.7017 15V15Z" fill="url(#paint0_angular_302_3135)"/>
<defs>
<radialGradient id="paint0_angular_302_3135" cx="0" cy="0" r="1" gradientUnits="userSpaceOnUse" gradientTransform="translate(15 14.5) rotate(1.90915) scale(15.0083)">
<stop stop-color="#2E394A"/>
<stop offset="0.390625" stop-color="#2E394A"/>
<stop offset="0.9999" stop-color="#F1F1F1" stop-opacity="0"/>
<stop offset="1" stop-color="#F1F1F1" stop-opacity="0"/>
</radialGradient>
</defs>
</svg>
