<svg width="113" height="25" viewBox="0 0 113 25" fill="none" xmlns="http://www.w3.org/2000/svg">
<path d="M13.3668 1.7V4.196H8.01475V18.5H5.51875V4.196H0.17875V1.7H13.3668ZM21.8866 6.5H24.5506L17.9746 24.5H15.3226L17.4946 18.5L13.1866 6.5H15.9106L18.7426 15.08L21.8866 6.5ZM26.3463 18.5V0.499999H28.8423V18.5H26.3463ZM36.8294 18.812C35.7254 18.812 34.7174 18.528 33.8054 17.96C32.9014 17.392 32.1774 16.632 31.6334 15.68C31.0974 14.72 30.8294 13.66 30.8294 12.5C30.8294 11.62 30.9854 10.8 31.2974 10.04C31.6094 9.272 32.0374 8.6 32.5814 8.024C33.1334 7.44 33.7734 6.984 34.5014 6.656C35.2294 6.328 36.0054 6.164 36.8294 6.164C37.7494 6.164 38.5934 6.356 39.3614 6.74C40.1294 7.116 40.7854 7.64 41.3294 8.312C41.8734 8.976 42.2734 9.744 42.5294 10.616C42.7854 11.48 42.8614 12.4 42.7574 13.376H33.5054C33.6094 13.928 33.8094 14.428 34.1054 14.876C34.4094 15.316 34.7934 15.664 35.2574 15.92C35.7294 16.176 36.2534 16.308 36.8294 16.316C37.4374 16.316 37.9894 16.164 38.4854 15.86C38.9894 15.556 39.4014 15.136 39.7214 14.6L42.2534 15.188C41.7734 16.252 41.0494 17.124 40.0814 17.804C39.1134 18.476 38.0294 18.812 36.8294 18.812ZM33.4214 11.468H40.2374C40.1574 10.892 39.9534 10.372 39.6254 9.908C39.3054 9.436 38.9014 9.064 38.4134 8.792C37.9334 8.512 37.4054 8.372 36.8294 8.372C36.2614 8.372 35.7334 8.508 35.2454 8.78C34.7654 9.052 34.3654 9.424 34.0454 9.896C33.7334 10.36 33.5254 10.884 33.4214 11.468ZM44.7447 18.5V6.5H47.2407V7.772C47.6567 7.276 48.1687 6.884 48.7767 6.596C49.3847 6.308 50.0407 6.164 50.7447 6.164C51.1927 6.164 51.6367 6.224 52.0767 6.344L51.0807 8.864C50.7687 8.744 50.4567 8.684 50.1447 8.684C49.6167 8.684 49.1327 8.816 48.6927 9.08C48.2527 9.336 47.9007 9.684 47.6367 10.124C47.3727 10.564 47.2407 11.052 47.2407 11.588V18.5H44.7447ZM67.3098 18.812C66.1738 18.812 65.1058 18.588 64.1058 18.14C63.1058 17.684 62.2258 17.06 61.4658 16.268C60.7138 15.468 60.1218 14.54 59.6898 13.484C59.2658 12.428 59.0538 11.3 59.0538 10.1C59.0538 8.9 59.2658 7.772 59.6898 6.716C60.1218 5.66 60.7138 4.736 61.4658 3.944C62.2258 3.144 63.1058 2.52 64.1058 2.072C65.1058 1.616 66.1738 1.388 67.3098 1.388C68.6698 1.388 69.9218 1.704 71.0658 2.336C72.2098 2.968 73.1578 3.808 73.9098 4.856L71.6898 6.044C71.1698 5.388 70.5258 4.864 69.7578 4.472C68.9898 4.08 68.1738 3.884 67.3098 3.884C66.5098 3.884 65.7618 4.048 65.0658 4.376C64.3698 4.704 63.7578 5.152 63.2298 5.72C62.7018 6.288 62.2898 6.948 61.9938 7.7C61.6978 8.452 61.5498 9.252 61.5498 10.1C61.5498 10.956 61.6978 11.76 61.9938 12.512C62.2898 13.256 62.7018 13.916 63.2298 14.492C63.7658 15.06 64.3818 15.508 65.0778 15.836C65.7738 16.156 66.5178 16.316 67.3098 16.316C68.1898 16.316 69.0098 16.12 69.7698 15.728C70.5378 15.328 71.1778 14.8 71.6898 14.144L73.9098 15.356C73.1578 16.404 72.2098 17.244 71.0658 17.876C69.9218 18.5 68.6698 18.812 67.3098 18.812ZM80.8919 18.812C79.7879 18.812 78.7799 18.528 77.8679 17.96C76.9639 17.392 76.2399 16.632 75.6959 15.68C75.1599 14.72 74.8919 13.66 74.8919 12.5C74.8919 11.62 75.0479 10.8 75.3599 10.04C75.6719 9.272 76.0999 8.6 76.6439 8.024C77.1959 7.44 77.8359 6.984 78.5639 6.656C79.2919 6.328 80.0679 6.164 80.8919 6.164C81.9959 6.164 82.9999 6.448 83.9039 7.016C84.8159 7.584 85.5399 8.348 86.0759 9.308C86.6199 10.268 86.8919 11.332 86.8919 12.5C86.8919 13.372 86.7359 14.188 86.4239 14.948C86.1119 15.708 85.6799 16.38 85.1279 16.964C84.5839 17.54 83.9479 17.992 83.2199 18.32C82.4999 18.648 81.7239 18.812 80.8919 18.812ZM80.8919 16.316C81.5559 16.316 82.1519 16.14 82.6799 15.788C83.2079 15.436 83.6239 14.972 83.9279 14.396C84.2399 13.812 84.3959 13.18 84.3959 12.5C84.3959 11.804 84.2359 11.164 83.9159 10.58C83.6039 9.996 83.1839 9.532 82.6559 9.188C82.1279 8.836 81.5399 8.66 80.8919 8.66C80.2359 8.66 79.6399 8.836 79.1039 9.188C78.5759 9.54 78.1559 10.008 77.8439 10.592C77.5399 11.176 77.3879 11.812 77.3879 12.5C77.3879 13.212 77.5479 13.856 77.8679 14.432C78.1879 15.008 78.6119 15.468 79.1399 15.812C79.6759 16.148 80.2599 16.316 80.8919 16.316ZM99.6306 10.976V18.5H97.1346V11.588C97.1346 11.052 97.0026 10.564 96.7386 10.124C96.4826 9.684 96.1346 9.336 95.6946 9.08C95.2626 8.816 94.7746 8.684 94.2306 8.684C93.7026 8.684 93.2186 8.816 92.7786 9.08C92.3386 9.336 91.9866 9.684 91.7226 10.124C91.4586 10.564 91.3266 11.052 91.3266 11.588V18.5H88.8306V6.5H91.3266V7.772C91.7426 7.276 92.2546 6.884 92.8626 6.596C93.4706 6.308 94.1266 6.164 94.8306 6.164C95.7186 6.164 96.5266 6.38 97.2546 6.812C97.9826 7.244 98.5586 7.824 98.9826 8.552C99.4146 9.28 99.6306 10.088 99.6306 10.976ZM112.826 10.976V18.5H110.33V11.588C110.33 11.052 110.198 10.564 109.934 10.124C109.678 9.684 109.33 9.336 108.89 9.08C108.458 8.816 107.97 8.684 107.426 8.684C106.898 8.684 106.414 8.816 105.974 9.08C105.534 9.336 105.182 9.684 104.918 10.124C104.654 10.564 104.522 11.052 104.522 11.588V18.5H102.026V6.5H104.522V7.772C104.938 7.276 105.45 6.884 106.058 6.596C106.666 6.308 107.322 6.164 108.026 6.164C108.914 6.164 109.722 6.38 110.45 6.812C111.178 7.244 111.754 7.824 112.178 8.552C112.61 9.28 112.826 10.088 112.826 10.976Z" fill="#101010"/>
</svg>
