<svg width="200" height="200" viewBox="0 0 200 200" fill="none" xmlns="http://www.w3.org/2000/svg">
<path d="M11.9645 71.61C17.9705 52.9855 29.7285 36.7457 45.5474 25.2259C61.3663 13.7061 80.4311 7.5 100 7.5" stroke="black" stroke-width="15"/>
<path d="M100 0.5C121.003 0.5 141.467 7.14614 158.462 19.4867C175.458 31.8272 188.112 49.2292 194.613 69.2007C201.114 89.1721 201.129 110.689 194.656 130.669C188.182 150.649 175.551 168.069 158.573 180.433C141.595 192.797 121.14 199.471 100.137 199.5C79.1342 199.529 58.6607 192.911 41.6486 180.594C24.6364 168.277 11.9582 150.892 5.42937 130.93C-1.09943 110.967 -1.1439 89.4508 5.30232 69.4615" stroke="#F8F8F8"/>
</svg>
